<?xml version="1.0" encoding="UTF-8"?><svg id="a" xmlns="http://www.w3.org/2000/svg" viewBox="0 0 129 20"><defs><style>.b{fill:#fff;}.c{fill:#4c4c4c;}.d{fill:#006414;}.e{fill:red;}</style></defs><rect class="d" x="53.1" width="75.9" height="20"/><rect class="c" width="53.1" height="20"/><g><path class="b" d="M16.45,12.85h-1.4v-2.56l-.91,1.21h-.15l-.9-1.21v2.56h-1.4V7.16h.49l1.89,2.45,1.89-2.45h.49v5.68Z"/><path class="b" d="M20.67,12.85l-.25-.7h-1.61l-.25,.7h-1.46v-.09l2.17-5.64h.69l2.15,5.64v.09h-1.44Zm-.65-1.85c-.27-.82-.32-1.11-.41-1.61-.11,.56-.17,.82-.4,1.61h.82Z"/><path class="b" d="M24.65,7.2c1.42,0,2.37,1.11,2.37,2.79,.02,1.71-.93,2.85-2.37,2.85h-1.86V7.2h1.86Zm-.02,4.31c.59,0,.98-.6,.98-1.5s-.4-1.48-.98-1.48h-.45v2.99h.45Z"/><path class="b" d="M29.36,9.29h1.5v1.29h-1.5v.92h1.71v1.35h-3.1V7.2h3.04v1.28h-1.65v.81Z"/><path class="b" d="M33.67,12.85v-1.19h.56v-3.26h-.51v-1.19h2.42v1.19h-.52v3.26h.57v1.19h-2.53Z"/><path class="b" d="M37.2,12.85V7.15h.44l2.38,2.74v-2.7h1.4v5.69h-.4l-2.41-2.79v2.75h-1.4Z"/></g><g><path class="b" d="M76.23,9.86c.45,.31,.7,.79,.7,1.31,0,1.01-.67,1.65-1.69,1.65h-2.24V7.17h2.07c1.01,0,1.68,.63,1.68,1.61,0,.35-.13,.82-.52,1.07Zm-1.28-.47c.24,0,.41-.19,.42-.46,0-.31-.16-.51-.42-.51h-.57v.97h.57Zm.19,2.16c.23,0,.42-.19,.42-.48,0-.31-.19-.52-.42-.52h-.76v1h.76Z"/><path class="b" d="M80.86,12.83l-.25-.7h-1.61l-.25,.7h-1.46v-.09l2.17-5.64h.69l2.15,5.64v.09h-1.44Zm-.65-1.85c-.27-.82-.32-1.11-.41-1.61-.11,.56-.17,.82-.4,1.61h.82Z"/><path class="b" d="M82.97,12.83V7.13h.44l2.38,2.74v-2.7h1.4v5.69h-.4l-2.41-2.79v2.75h-1.4Z"/><path class="b" d="M90.6,7.09c.95,0,1.97,.56,2.21,1.94h-1.36c-.15-.45-.44-.62-.86-.62-.7,0-1.07,.63-1.07,1.58s.43,1.55,1.07,1.55c.39,0,.72-.15,.86-.69h-.86v-1.24h2.27c.13,1.79-.52,3.28-2.27,3.28-1.49,0-2.49-1.15-2.49-2.89s1.06-2.91,2.49-2.91Z"/><path class="b" d="M96.74,12.83h-2.96V7.17h1.4v4.33h1.57v1.32Z"/><path class="b" d="M100.57,12.83l-.25-.7h-1.61l-.25,.7h-1.46v-.09l2.17-5.64h.69l2.15,5.64v.09h-1.44Zm-.65-1.85c-.27-.82-.32-1.11-.41-1.61-.11,.56-.17,.82-.4,1.61h.82Z"/><path class="b" d="M104.55,7.18c1.42,0,2.37,1.11,2.37,2.79,.02,1.71-.93,2.85-2.37,2.85h-1.86V7.18h1.86Zm-.02,4.31c.59,0,.98-.6,.98-1.5s-.4-1.48-.98-1.48h-.45v2.99h.45Z"/><path class="b" d="M109.26,9.27h1.5v1.29h-1.5v.92h1.71v1.35h-3.1V7.17h3.04v1.28h-1.65v.81Z"/><path class="b" d="M113.08,11.04c0,.35,.25,.59,.64,.59s.62-.19,.62-.51c0-.46-.5-.49-.78-.52-.88-.06-1.76-.54-1.76-1.72,0-1.11,.76-1.79,1.89-1.79s1.89,.74,1.86,1.85h-1.31c.02-.34-.19-.58-.52-.58s-.54,.19-.54,.52c0,.25,.19,.43,.62,.48,1.02,.1,1.93,.4,1.93,1.78,0,1.08-.79,1.77-1.99,1.77s-2.01-.74-1.98-1.86h1.32Z"/><path class="b" d="M118.04,10.56v2.26h-1.4V7.17h1.4v2.04h1.28v-2.04h1.4v5.65h-1.4v-2.26h-1.28Z"/></g><circle class="e" cx="63.66" cy="10" r="4.29"/></svg>