<svg xmlns="http://www.w3.org/2000/svg" viewBox="0 0 348.35 60.65"><defs><style>.cls-1{fill:#0ace8e;}.cls-2{fill:#fff;}.cls-3{fill:#f80731;}.cls-4{fill:#fcc302;}</style></defs><g id="Layer_2" data-name="Layer 2"><g id="Layer_1-2" data-name="Layer 1"><polygon class="cls-1" points="25.31 1.69 0.6 27.76 0.6 1.69 25.31 1.69"/><path class="cls-2" d="M0,29.26V1.09H26.71Zm1.2-27v24l22.71-24Z"/><polygon class="cls-1" points="8.09 37.01 25.95 58.92 0.6 58.92 0.6 44.82 8.09 37.01"/><path class="cls-2" d="M27.21,59.52H0V44.58l8.13-8.47Zm-26-1.2H24.68L8.05,37.92,1.2,45.06Z"/><polygon class="cls-1" points="41 3.14 41 58.92 16.55 28 41 1.69 41 3.14"/><path class="cls-2" d="M41.6,60.65,15.76,28,41.6.16ZM17.34,28,40.4,57.19v-54Z"/><polygon class="cls-3" points="90.27 58.92 51.62 58.92 51.62 26.17 67.96 53.02 70.9 57.84 73.78 53.02 90.19 25.45 90.27 58.92"/><path class="cls-2" d="M90.88,59.52H51V24L70.9,56.68l19.88-33.4Zm-19.57-1.2H89.67l-.08-30.7Zm-19.09,0H70.5l-3-5-15.23-25Z"/><polygon class="cls-3" points="50.19 3.14 91.63 3.14 71.08 37.8 50.19 3.14"/><path class="cls-2" d="M71.08,39,49.13,2.54H92.68ZM51.25,3.74l19.82,32.9L90.58,3.74Z"/><path class="cls-4" d="M133.29,43.54c0,3.43-3.11,6-10.76,6l-1.25,0h0c-.18,0-.44,0-.75-.06l-.59,0a32,32,0,0,1-7.34-1.49l-1.19-.4A27.07,27.07,0,0,1,106.17,45l-.67-.42A18.15,18.15,0,0,1,101,40.36V21.54C103,39.81,133.29,33.45,133.29,43.54Z"/><path class="cls-2" d="M122.53,50.11q-.61,0-1.23,0c-.21,0-.43,0-.7,0l-.14,0-.58,0a32.36,32.36,0,0,1-7.49-1.52l-.24-.08c-.32-.1-.65-.21-1-.33a27.45,27.45,0,0,1-5.33-2.5l-.2-.13-.48-.3a18.87,18.87,0,0,1-4.69-4.4l-.12-.16v-19l1.19-.07c1.11,10,11,12.3,19.74,14.33,6.76,1.57,12.6,2.93,12.6,7.74C133.89,46,132.41,50.11,122.53,50.11Zm-21-10a17.55,17.55,0,0,0,4.28,4c.14.1.29.19.44.28l.21.13a26,26,0,0,0,5.1,2.39c.31.12.63.22.94.33l.24.07a30.9,30.9,0,0,0,7.2,1.46l.59,0h.16c.22,0,.4,0,.55,0l1.26,0c6.55,0,10.16-1.91,10.16-5.37,0-3.86-5.41-5.12-11.67-6.57-7.33-1.7-16.18-3.76-19.46-10.91Z"/><path class="cls-4" d="M124.37,2.18c-14.81,0-22.46,6.89-23.41,15.52V2.18Z"/><path class="cls-2" d="M101.55,17.77l-1.19-.07V1.58h24v1.2C111.12,2.78,102.59,8.39,101.55,17.77Zm0-15V13.11c1.9-4.4,6-8.4,13-10.33Z"/><path class="cls-4" d="M113.74,18.52c0-3.43,3.1-6,10.75-6l1.26,0h0c.19,0,.45,0,.75.05l.59,0a32.49,32.49,0,0,1,7.35,1.48c.39.13.79.26,1.18.41A26.3,26.3,0,0,1,140.86,17l.66.42a18.19,18.19,0,0,1,4.55,4.26V40.52C144.05,22.25,113.74,28.61,113.74,18.52Z"/><path class="cls-2" d="M145.47,40.58c-1.1-10-11-12.3-19.74-14.32-6.76-1.57-12.59-2.93-12.59-7.74,0-2.45,1.47-6.57,11.35-6.57l1.23,0c.21,0,.44,0,.71,0l.71.06a32.84,32.84,0,0,1,7.5,1.51l.24.08,1,.33a27.21,27.21,0,0,1,5.33,2.51l.21.13.47.3a18.74,18.74,0,0,1,4.7,4.4l.12.16v19Zm-21-27.43c-6.55,0-10.15,1.91-10.15,5.37,0,3.86,5.4,5.11,11.66,6.57,7.34,1.7,16.19,3.76,19.47,10.91V21.9a17.55,17.55,0,0,0-4.28-4l-.45-.28-.2-.13a26,26,0,0,0-5.1-2.4l-.94-.32-.24-.08a31.38,31.38,0,0,0-7.21-1.45l-.59,0h-.15c-.22,0-.41,0-.55,0Z"/><path class="cls-4" d="M122.66,59.87c14.81,0,22.46-6.88,23.41-15.51V59.87Z"/><path class="cls-2" d="M146.67,60.47h-24v-1.2c13.25,0,21.78-5.6,22.81-15l1.2.07Zm-14.21-1.2h13V49C143.57,53.35,139.47,57.35,132.46,59.27Z"/><path class="cls-2" d="M162.13,3.4v7.06h46.92V3.4ZM181.58,18V60.13h8V18Z"/><path class="cls-2" d="M251,41.24c.08-.72.16-1.7.16-2.35,0-13.2-8.84-22.11-21.23-22.11s-21.56,9.15-21.56,21.87,9.25,22,23.1,22c7.13,0,13.05-2.43,16.94-7l-4.3-5a16,16,0,0,1-12.4,5.19c-8.51,0-14.58-5-15.55-12.57h20V35.65h-20a13.86,13.86,0,0,1,27.54,0v5.59Z"/><path class="cls-2" d="M280.6,16.78a24.77,24.77,0,0,0-10.84,2.36l4.72,5.58h0a16,16,0,0,1,6-1.14,13.37,13.37,0,0,1,11.66,6.15l5.93-3.8C294.71,19.94,288.31,16.78,280.6,16.78Zm11.59,30.86a13.36,13.36,0,0,1-11.66,6.17c-8.43,0-14.75-5.84-14.75-15.16a15.63,15.63,0,0,1,2.76-9.23l-4.91-5.81a21.46,21.46,0,0,0-5.71,15c0,12.8,9.48,22,22.68,22,7.71,0,14.11-3.25,17.52-9.24Z"/><path class="cls-2" d="M340.57,60.13h7.78V50.71h-7.78Zm-10-43.35c-6.56,0-11.91,2.34-15.15,6.48V0H307.6V60.13h7.78V38c0-9.32,5.35-14.26,13.6-14.26,7.38,0,11.59,4.14,11.59,12.56v6.84h7.78V35.41C348.35,22.77,341,16.78,330.53,16.78Z"/></g></g></svg>